<svg xmlns="http://www.w3.org/2000/svg" viewBox="0 0 500 500"><path d="m426.22 234.179-94.142 47.014h71.717a350.635 350.635 0 0 1-26.913 41.632L247.17 366.013h89.238c-31.428 26.568-69.897 45.15-117.15 49.956a998.641 998.641 0 0 1-111.318 6.503h-.053l-30.12-29.952c.071-55.496 3.535-88.4 6.185-111.716C106.43 60.483 427.837 29.876 473.595 26.73c-1.599 23.202-10.346 117.388-47.375 207.448Z" fill="#5f6368" fill-opacity=".4" fill-rule="nonzero"/><path d="M65.177 463.229c-9.967 9.19-34.087 12.097-37.57 8.614-3.483-3.483.873-26.987 9.501-36.683 39.479-44.365 157.14-160.257 203.743-203.744 15.035-14.028 44.68-31.49 50.123-32.934 4.531-1.203 10.046 3.86 8.952 8.951-1.184 5.506-17.414 37.258-31.005 52.052-43.033 46.842-159.644 163.078-203.744 203.744Z" fill="#5f6368" fill-rule="nonzero"/></svg>